<svg width="155" height="33" viewBox="0 0 155 33" fill="none" xmlns="http://www.w3.org/2000/svg">
<path d="M64.6095 24.5534H51.2669L68.3009 2.51985C68.6721 2.03604 68.569 1.33048 68.074 0.967624C67.8884 0.826512 67.641 0.745876 67.3935 0.745876H42.7499C40.5846 0.745876 38.8111 2.47954 38.8111 4.59621C38.8111 6.71289 40.5846 8.44655 42.7499 8.44655H53.8241L36.7282 30.5003C36.3364 30.9841 36.4395 31.6695 36.9344 32.0525C37.1407 32.2138 37.3881 32.2944 37.6356 32.2743H64.5889C66.7542 32.1735 68.4246 30.3592 68.3215 28.2224C68.2184 26.2468 66.6099 24.6744 64.5889 24.5736V24.5534H64.6095ZM150.728 0.745876C148.563 0.745876 146.789 2.47954 146.789 4.59621V17.518L125.507 1.00794C125.033 0.624924 124.311 0.685401 123.919 1.16921C123.754 1.3708 123.672 1.61271 123.672 1.87477V28.4239C123.672 30.5406 125.445 32.2743 127.61 32.2743C129.776 32.2743 131.549 30.5608 131.549 28.4239V15.5021L152.831 32.0324C153.326 32.4154 154.048 32.3348 154.44 31.8509C154.605 31.6494 154.687 31.4075 154.687 31.1655V4.59621C154.667 2.45938 152.914 0.745876 150.728 0.745876ZM94.4087 25.2792C85.3967 25.2792 78.6739 20.6426 78.6739 16.4899C78.6739 12.3372 85.4174 7.70067 94.4087 7.70067C103.421 7.70067 110.143 12.3372 110.143 16.4899C110.143 20.6426 103.441 25.2792 94.4087 25.2792ZM94.4087 0C81.3754 0 70.7962 7.37813 70.7962 16.4899C70.7962 25.6017 81.3754 32.9798 94.4087 32.9798C107.442 32.9798 118.021 25.6017 118.021 16.4899C118.021 7.37813 107.442 0 94.4087 0ZM16.8896 25.2993C11.9197 25.2993 7.8777 21.3684 7.8777 16.5101C7.8777 11.6518 11.899 7.70067 16.869 7.70067C21.839 7.70067 25.8809 11.6316 25.8809 16.4899V16.5101C25.8809 21.3482 21.8596 25.2792 16.8896 25.2993ZM16.8896 0C7.56836 0 0.0206222 7.37813 0 16.4899C0 25.6017 7.54774 32.9798 16.869 33C26.1903 33 33.738 25.6219 33.7586 16.5101V16.4899C33.738 7.37813 26.1903 0 16.8896 0Z" fill="white"/>
</svg>
